<?xml version="1.0" encoding="UTF-8"?>
<svg width="318px" height="279px" viewBox="0 0 318 279" version="1.1" xmlns="http://www.w3.org/2000/svg" xmlns:xlink="http://www.w3.org/1999/xlink">
    <!-- Generator: Sketch 55.2 (78181) - https://sketchapp.com -->
    <title>Artboard</title>
    <desc>Created with Sketch.</desc>
    <defs>
        <path d="M310.339746,153.5 L247.910254,261.631052 C242.55127,270.913084 232.64746,276.631052 221.929492,276.631052 L97.0705081,276.631052 C86.3525404,276.631052 76.4487298,270.913084 71.089746,261.631052 L8.66025404,153.5 C3.30127019,144.217968 3.30127019,132.782032 8.66025404,123.5 L71.089746,15.3689481 C76.4487298,6.08691579 86.3525404,0.368948096 97.0705081,0.368948096 L221.929492,0.368948096 C232.64746,0.368948096 242.55127,6.08691579 247.910254,15.3689481 L310.339746,123.5 C315.69873,132.782032 315.69873,144.217968 310.339746,153.5 Z" id="path-1"></path>
    </defs>
    <g id="Artboard" stroke="none" stroke-width="1" fill="none" fill-rule="evenodd">
        <g id="ee-yellow" transform="translate(-1.000000, 1.000000)">
            <mask id="mask-2" fill="white">
                <use xlink:href="#path-1"></use>
            </mask>
            <g id="Mask"></g>
            <g id="SVG-Layer-Copy" mask="url(#mask-2)" fill="#FFE01C" fill-rule="nonzero">
                <g transform="translate(-58.000000, -13.000000)" id="Rectangle">
                    <rect x="0.5" y="0" width="455" height="303"></rect>
                </g>
            </g>
        </g>
        <g id="email" transform="translate(69.000000, 44.000000)" fill="#000000" fill-rule="nonzero">
            <path d="M164.083333,53.699554 L116.35,53.699554 L116.35,47.7328661 L131.266667,47.7328661 C132.473114,47.7326085 133.560653,47.0057432 134.022306,45.8911123 C134.483959,44.7764815 134.228842,43.4935172 133.375883,42.640298 L91.6092167,0.873482696 C90.4442254,-0.291160899 88.5557746,-0.291160899 87.3907833,0.873482696 L45.6241167,42.640298 C44.7711581,43.4935172 44.5160413,44.7764815 44.977694,45.8911123 C45.4393468,47.0057432 46.5268856,47.7326085 47.7333333,47.7328661 L62.65,47.7328661 L62.65,53.699554 L14.9166667,53.699554 C6.6825081,53.7094173 0.00986324706,60.3820859 0,68.6162738 L0,164.08328 C0.00986324706,172.317468 6.6825081,178.990137 14.9166667,179 L164.083333,179 C172.317492,178.990137 178.990137,172.317468 179,164.08328 L179,68.6162738 C178.990137,60.3820859 172.317492,53.7094173 164.083333,53.699554 Z M118.52485,116.349777 L172.06375,64.6484263 C172.691964,65.8773267 173.024004,67.2361417 173.033333,68.6162738 L173.033333,164.08328 C173.024004,165.463412 172.691964,166.822227 172.06375,168.051128 L118.52485,116.349777 Z M54.9351,41.7661782 L89.5,7.20115522 L124.0649,41.7661782 L113.366667,41.7661782 C111.719017,41.7661782 110.383333,43.1018668 110.383333,44.7495222 L110.383333,95.4663694 L68.6166667,95.4663694 L68.6166667,44.7495222 C68.6166667,43.1018668 67.2809828,41.7661782 65.6333333,41.7661782 L54.9351,41.7661782 Z M62.65,59.6662419 L62.65,98.4497133 C62.65,100.097369 63.9856838,101.433057 65.6333333,101.433057 L113.366667,101.433057 C115.014316,101.433057 116.35,100.097369 116.35,98.4497133 L116.35,59.6662419 L164.083333,59.6662419 C165.361324,59.671351 166.62316,59.9522123 167.782667,60.4896449 L95.7262167,130.073159 C92.2564685,133.430168 86.7494982,133.430168 83.27975,130.073159 L11.2173333,60.4896449 C12.3768398,59.9522123 13.6386757,59.671351 14.9166667,59.6662419 L62.65,59.6662419 Z M6.93625,168.051128 C6.30803618,166.822227 5.97599611,165.463412 5.96666667,164.08328 L5.96666667,68.6162738 C5.97599611,67.2361417 6.30803618,65.8773267 6.93625,64.6484263 L60.47515,116.349777 L6.93625,168.051128 Z M14.9166667,173.033312 C13.6386757,173.028203 12.3768398,172.747342 11.2173333,172.209909 L64.77115,120.496625 L79.1388833,134.372158 C84.9193923,139.954997 94.0835911,139.954997 99.8641,134.372158 L114.22885,120.499608 L167.782667,172.209909 C166.62316,172.747342 165.361324,173.028203 164.083333,173.033312 L14.9166667,173.033312 Z" id="Shape"></path>
        </g>
    </g>
</svg>