<svg width="318" height="279" xmlns="http://www.w3.org/2000/svg" xmlns:xlink="http://www.w3.org/1999/xlink"><defs><path d="M310.34 153.5l-62.43 108.131a30 30 0 0 1-25.98 15H97.07a30 30 0 0 1-25.98-15L8.66 153.5a30 30 0 0 1 0-30L71.09 15.369a30 30 0 0 1 25.98-15h124.86a30 30 0 0 1 25.98 15L310.34 123.5a30 30 0 0 1 0 30z" id="a"/><linearGradient x1="50%" y1="3.125%" x2="50%" y2="97.125%" id="c"><stop stop-color="red" offset="0%"/><stop stop-color="#E0F" offset="100%"/></linearGradient><linearGradient x1="50%" y1="3.125%" x2="50%" y2="97.125%" id="d"><stop stop-color="#FF0019" offset="0%"/><stop stop-color="#CE00F3" offset="100%"/></linearGradient><linearGradient x1="50%" y1="3.125%" x2="50%" y2="97.125%" id="e"><stop stop-color="#FF0031" offset="0%"/><stop stop-color="#B000E6" offset="100%"/></linearGradient><linearGradient x1="50%" y1="3.125%" x2="50%" y2="97.125%" id="f"><stop stop-color="#FF004A" offset="0%"/><stop stop-color="#9400DA" offset="100%"/></linearGradient><linearGradient x1="50%" y1="3.125%" x2="50%" y2="97.125%" id="g"><stop stop-color="#FF0063" offset="0%"/><stop stop-color="#7A00CE" offset="100%"/></linearGradient><linearGradient x1="50%" y1="3.125%" x2="50%" y2="97.125%" id="h"><stop stop-color="#FF007C" offset="0%"/><stop stop-color="#6200C1" offset="100%"/></linearGradient><linearGradient x1="50%" y1="3.125%" x2="50%" y2="97.125%" id="i"><stop stop-color="#FF0094" offset="0%"/><stop stop-color="#4D00B5" offset="100%"/></linearGradient><linearGradient x1="50%" y1="3.125%" x2="50%" y2="97.125%" id="j"><stop stop-color="#FF00AD" offset="0%"/><stop stop-color="#3900A8" offset="100%"/></linearGradient><linearGradient x1="50%" y1="3.125%" x2="50%" y2="97.125%" id="k"><stop stop-color="#FF00C6" offset="0%"/><stop stop-color="#28009C" offset="100%"/></linearGradient><linearGradient x1="50%" y1="3.125%" x2="50%" y2="97.125%" id="l"><stop stop-color="#FF00DF" offset="0%"/><stop stop-color="#180090" offset="100%"/></linearGradient></defs><g fill="none" fill-rule="evenodd"><g transform="translate(-1 1)"><mask id="b" fill="#fff"><use xlink:href="#a"/></mask><path stroke="#979797" fill="#EE9C3F" mask="url(#b)" d="M0.5 -20.5H332.5V291.5H0.5z"/><g mask="url(#b)"><g transform="translate(-58 -13)" fill-rule="nonzero"><path fill="#D84994" d="M0.5 0H455.5V303H0.5z"/><g transform="translate(.5)"><path fill="url(#c)" d="M0 0H455V303H0z"/><path fill="url(#d)" d="M37.917 0H455V303H37.917z"/><path fill="url(#e)" d="M75.833 0H455V303H75.833z"/><path fill="url(#f)" d="M113.75 0H455V303H113.75z"/><path fill="url(#g)" d="M151.667 0H455V303H151.667z"/><path fill="url(#h)" d="M189.583 0H455V303H189.583z"/><path fill="url(#i)" d="M227.5 0H455V303H227.5z"/><path fill="url(#j)" d="M265.417 0H455V303H265.417z"/><path fill="url(#k)" d="M303.333 0H455V303H303.333z"/><path fill="url(#l)" d="M341.25 0H455V303H341.25z"/></g></g></g></g><path d="M233.083 97.7H185.35v-5.967h14.917a2.983 2.983 0 0 0 2.109-5.093l-41.767-41.767a2.983 2.983 0 0 0-4.218 0L114.624 86.64a2.983 2.983 0 0 0 2.11 5.093h14.916V97.7H83.917c-8.234.01-14.907 6.682-14.917 14.916v95.467c.01 8.234 6.683 14.907 14.917 14.917h149.166c8.234-.01 14.907-6.683 14.917-14.917v-95.467c-.01-8.234-6.683-14.907-14.917-14.916zm-45.558 62.65l53.539-51.702a8.849 8.849 0 0 1 .97 3.968v95.467a8.849 8.849 0 0 1-.97 3.968l-53.54-51.701zm-63.59-74.584L158.5 51.201l34.565 34.565h-10.698a2.983 2.983 0 0 0-2.984 2.984v50.716h-41.766V88.75a2.983 2.983 0 0 0-2.984-2.984h-10.698zm7.715 17.9v38.784a2.983 2.983 0 0 0 2.983 2.983h47.734a2.983 2.983 0 0 0 2.983-2.983v-38.784h47.733a8.881 8.881 0 0 1 3.7.824l-72.057 69.583a8.95 8.95 0 0 1-12.446 0L80.217 104.49a8.881 8.881 0 0 1 3.7-.824h47.733zM75.936 212.051a8.849 8.849 0 0 1-.97-3.968v-95.467c.01-1.38.342-2.739.97-3.968l53.54 51.702-53.54 51.701zm7.98 4.982a8.881 8.881 0 0 1-3.699-.823l53.554-51.713 14.368 13.875c5.78 5.583 14.945 5.583 20.725 0L183.23 164.5l53.554 51.71a8.881 8.881 0 0 1-3.7.823H83.917z" fill="#FFF" fill-rule="nonzero"/></g></svg>